<?xml version="1.0" encoding="UTF-8"?>
<svg width="45px" height="45px" viewBox="0 0 45 45" version="1.1" xmlns="http://www.w3.org/2000/svg" xmlns:xlink="http://www.w3.org/1999/xlink">
    <!-- Generator: Sketch 52.3 (67297) - http://www.bohemiancoding.com/sketch -->
    <title>Down-Solid</title>
    <desc>Created with Sketch.</desc>
    <g id="Down-Solid" stroke="none" stroke-width="1" fill="none" fill-rule="evenodd">
        <path d="M0,4.92976873 C0,4.35034259 0.202798554,3.85783162 0.608396987,3.45223319 C1.01399542,3.04663476 1.50650638,2.8438362 2.08593253,2.8438362 L9.03904095,2.8438362 C9.61846709,2.8438362 10.1109781,3.04663476 10.5165765,3.45223319 C10.9221749,3.85783162 11.1249735,4.35034259 11.1249735,4.92976873 L11.1249735,25.789094 C11.1249735,26.3685201 10.9221749,26.8610311 10.5165765,27.2666295 C10.1109781,27.672228 9.61846709,27.8750265 9.03904095,27.8750265 L2.08593253,27.8750265 C1.50650638,27.8750265 1.01399542,27.672228 0.608396987,27.2666295 C0.202798554,26.8610311 0,26.3685201 0,25.789094 L0,4.92976873 Z M3.47655421,22.3125398 C3.47655421,22.8919659 3.67935276,23.3844769 4.0849512,23.7900753 C4.49054963,24.1956738 4.98306059,24.3984723 5.56248674,24.3984723 C6.14191288,24.3984723 6.63442384,24.1956738 7.04002228,23.7900753 C7.44562071,23.3844769 7.64841926,22.8919659 7.64841926,22.3125398 C7.64841926,21.7331136 7.44562071,21.2406027 7.04002228,20.8350042 C6.63442384,20.4294058 6.14191288,20.2266073 5.56248674,20.2266073 C4.98306059,20.2266073 4.49054963,20.4294058 4.0849512,20.8350042 C3.67935276,21.2406027 3.47655421,21.7331136 3.47655421,22.3125398 Z M27.1171228,44.5624867 C26.363869,44.5624867 25.6975303,43.9251189 25.1181042,42.6503819 C24.8283918,41.9550711 24.5097072,40.9410757 24.1620518,39.608397 L24.1620518,39.5214831 C23.8723394,38.2467461 23.6115978,37.3196659 23.3798271,36.7402398 C23.0321716,35.7552165 22.5686315,34.9729918 21.9892054,34.3935657 C21.0621238,33.5244271 19.9032729,32.0758624 18.5126512,30.0478729 C16.8323171,27.614285 15.4127232,25.789094 14.2538723,24.5723 C14.0221015,24.3984723 13.9062168,24.1667016 13.9062168,23.8769892 L13.9062168,5.27742415 C13.9062168,4.98771174 14.0076168,4.74145493 14.2104153,4.53865638 C14.4132139,4.33585783 14.6594707,4.23445789 14.9491831,4.23445789 C15.9342064,4.23445789 17.426228,3.78540253 19.4252467,2.88729313 C21.4242653,1.98918374 23.0032008,1.36630066 24.1620518,1.01864524 C26.1320996,0.381277412 28.0442044,0.0625928342 29.8983662,0.0625928342 L30.1591078,0.0625928342 C32.7085804,0.0625928342 34.5917144,0.178477533 35.8085084,0.410248255 C37.8364979,0.757903676 39.2271196,1.48218536 39.9803734,2.58309464 C40.7336273,3.68400391 40.9364258,4.98771174 40.5887704,6.49421813 C41.2840813,7.30541367 41.7765935,8.31940909 42.066306,9.53620306 C42.3560184,10.752997 42.3270475,11.911848 41.9793921,13.0127573 C42.732646,13.9977805 43.1672152,15.1276606 43.2830999,16.4023976 C43.3989846,17.6771346 43.2251569,18.8649564 42.7616168,19.9658657 L42.8485307,19.9658657 C43.3120708,20.4873488 43.7031831,21.1247167 44.0218677,21.8779705 C44.3405523,22.6312244 44.4998939,23.4134491 44.4998939,24.2246446 C44.4998939,25.5573233 43.9928969,26.7306603 42.9789014,27.7446557 C41.964906,28.7586512 40.7336273,29.2656482 39.2850626,29.2656482 L30.5067632,29.2656482 C30.6226479,29.8450744 30.9992755,30.7431837 31.6366433,31.9599777 C32.2160695,33.002944 32.6216666,33.8141395 32.8534373,34.3935657 C33.2010927,35.4365319 33.3749204,36.4794982 33.3749204,37.5224645 C33.3749204,40.3037078 32.5926957,42.2737557 31.0282463,43.4326066 C29.9852801,44.1858605 28.6815722,44.5624867 27.1171228,44.5624867 Z" id="thumbs-down" fill="#000000"></path>
    </g>
</svg>