<?xml version="1.0" encoding="UTF-8"?>
<svg width="45px" height="45px" viewBox="0 0 45 45" version="1.1" xmlns="http://www.w3.org/2000/svg" xmlns:xlink="http://www.w3.org/1999/xlink">
    <!-- Generator: Sketch 52.3 (67297) - http://www.bohemiancoding.com/sketch -->
    <title>Down-line</title>
    <desc>Created with Sketch.</desc>
    <g id="Down-line" stroke="none" stroke-width="1" fill="none" fill-rule="evenodd">
        <path d="M43.1961861,19.7051241 C44.0653246,20.8639751 44.4998939,22.2980537 44.4998939,24.00736 C44.4998939,25.7166662 43.8770108,27.2086865 42.631246,28.4834235 C41.3854812,29.7581605 39.8934596,30.3955283 38.1551825,30.3955283 L32.0712126,30.3955283 L32.2450403,30.6562699 C32.7665234,31.6992362 33.1431497,32.5394039 33.3749204,33.1767717 C33.7225758,34.277681 33.8964036,35.3785889 33.8964036,36.4794982 C33.8964036,39.0869139 33.3169774,41.0859325 32.1581265,42.4765542 C30.9992755,43.8671759 29.1740845,44.5624867 26.6825536,44.5624867 C24.7125057,44.5624867 23.3508562,42.6214111 22.5976024,38.7392584 C22.4237747,37.7542352 22.249947,37.0299522 22.0761192,36.5664121 C21.8443485,35.8131582 21.5546361,35.2627042 21.2069807,34.9150488 C20.6275545,34.3935657 19.7004743,33.2636856 18.4257373,31.5254084 C17.3827711,30.1927298 16.6005464,29.2366774 16.0790632,28.6572512 C15.2678677,27.7301697 14.6015277,27.1217727 14.0800446,26.8320603 L13.9062168,26.8320603 L13.9062168,27.8750265 C13.9062168,28.6282804 13.6309892,29.2801343 13.0805352,29.8305883 C12.5300812,30.3810422 11.8782273,30.6562699 11.1249735,30.6562699 L2.78124337,30.6562699 C2.02798951,30.6562699 1.3761356,30.3810422 0.825681625,29.8305883 C0.27522765,29.2801343 0,28.6282804 0,27.8750265 L0,5.62507957 C0,4.87182572 0.27522765,4.2199718 0.825681625,3.66951783 C1.3761356,3.11906385 2.02798951,2.8438362 2.78124337,2.8438362 L11.1249735,2.8438362 C11.8202843,2.8438362 12.4286813,3.07560693 12.9501644,3.53914705 L13.9062168,3.53914705 C14.485643,3.53914705 15.2099247,3.42326235 16.0790632,3.19149162 C16.6584894,3.01766391 17.5855696,2.7279515 18.8603066,2.32235307 C20.8882961,1.56909922 22.5106885,1.04761609 23.7274825,0.757903676 C25.6975303,0.294363557 27.5516921,0.0625928342 29.2899692,0.0625928342 L32.8534373,0.0625928342 C35.4029099,0.0625928342 37.3729578,0.772389761 38.7635795,2.19198229 C40.1542011,3.61157482 40.8205411,5.50919487 40.7625981,7.88483981 C41.399966,8.63809366 41.8635074,9.53620306 42.1532198,10.5791693 C42.4429322,11.6221356 42.5008752,12.6651018 42.3270475,13.7080681 C42.8485307,14.5192637 43.1817,15.4753161 43.3265569,16.5762253 C43.4714137,17.6771346 43.4279568,18.7201009 43.1961861,19.7051241 Z M11.1249735,27.8750265 L11.1249735,5.62507957 L2.78124337,5.62507957 L2.78124337,27.8750265 L11.1249735,27.8750265 Z M38.1551825,27.614285 C39.1402057,27.614285 39.9803734,27.2521435 40.6756843,26.5278618 C41.3709951,25.8035801 41.7186505,24.9923832 41.7186505,24.0942738 C41.7186505,23.1961644 41.5448228,22.4284245 41.1971674,21.7910567 C40.849512,21.1536888 40.3280289,20.7480904 39.632718,20.5742627 C40.0962581,20.2266073 40.4004566,19.6182103 40.5453135,18.7490717 C40.6901704,17.8799332 40.6467134,17.0107946 40.4149427,16.1416561 C40.183172,15.2725175 39.7486027,14.6930914 39.1112349,14.403379 C39.690661,13.4762974 39.8210318,12.4478172 39.5023472,11.3179371 C39.1836626,10.188057 38.6187226,9.42031836 37.807527,9.01471993 C38.1551825,6.87084439 37.8364979,5.27742415 36.8514746,4.23445789 C35.9823361,3.30737632 34.6496574,2.8438362 32.8534373,2.8438362 L29.2899692,2.8438362 C27.7255198,2.8438362 25.9582719,3.10457777 23.9882241,3.6260609 C22.8873148,3.91577331 21.3228654,4.4082856 19.2948759,5.10359644 C17.9621972,5.56713656 17.0351156,5.8568503 16.5136325,5.97273499 C15.5865509,6.2624474 14.8332984,6.40730427 14.2538723,6.40730427 L13.9062168,6.40730427 L13.9062168,24.0508169 L14.2538723,24.0508169 C15.0650678,24.0508169 16.0790632,24.6592139 17.2958572,25.8760079 C17.991168,26.6292617 19.0631051,27.9329695 20.5116698,29.7871313 C21.7284638,31.3515807 22.5976024,32.394547 23.1190855,32.9160301 C23.7564533,33.553398 24.2779365,34.3935657 24.6835349,35.4365319 C24.8573626,36.0159581 25.0601612,36.9430383 25.2919319,38.2177753 C25.5237026,39.1448569 25.6975303,39.8111955 25.813415,40.216794 C26.0451857,40.9121048 26.3348982,41.4335879 26.6825536,41.7812434 C28.5946584,41.7812434 29.8693954,41.1728464 30.5067632,39.9560524 C30.9123616,39.2607416 31.1151602,38.1018906 31.1151602,36.4794982 C31.1151602,35.6683027 30.9703033,34.8571058 30.6805909,34.0459102 C30.5067632,33.5244271 30.2025647,32.8291163 29.7679954,31.9599777 C29.3334262,31.0908392 29.0292277,30.4244992 28.8554,29.9609591 C28.5656875,29.2077052 28.4208307,28.4254805 28.4208307,27.614285 L38.1551825,27.614285 Z M9.03904095,23.7031615 C9.03904095,24.2825876 8.8362424,24.7750986 8.43064396,25.180697 C8.02504553,25.5862954 7.53253457,25.789094 6.95310842,25.789094 C6.37368228,25.789094 5.88117132,25.5862954 5.47557288,25.180697 C5.06997445,24.7750986 4.8671759,24.2825876 4.8671759,23.7031615 C4.8671759,23.1237353 5.06997445,22.6312244 5.47557288,22.2256259 C5.88117132,21.8200275 6.37368228,21.6172289 6.95310842,21.6172289 C7.53253457,21.6172289 8.02504553,21.8200275 8.43064396,22.2256259 C8.8362424,22.6312244 9.03904095,23.1237353 9.03904095,23.7031615 Z" id="thumbs-down-copy" fill="#000000"></path>
    </g>
</svg>