<?xml version="1.0" encoding="UTF-8"?>
<svg width="45px" height="45px" viewBox="0 0 45 45" version="1.1" xmlns="http://www.w3.org/2000/svg" xmlns:xlink="http://www.w3.org/1999/xlink">
    <!-- Generator: Sketch 52.3 (67297) - http://www.bohemiancoding.com/sketch -->
    <title>Up-Solid</title>
    <desc>Created with Sketch.</desc>
    <g id="Up-Solid" stroke="none" stroke-width="1" fill="none" fill-rule="evenodd">
        <path d="M8.9375,20 C9.5104171,20 9.9973954,20.2025459 10.3984375,20.6076389 C10.7994796,21.0127319 11,21.5046292 11,22.0833333 L11,42.9166667 C11,43.4953708 10.7994796,43.9872681 10.3984375,44.3923611 C9.9973954,44.7974541 9.5104171,45 8.9375,45 L2.0625,45 C1.4895829,45 1.0026046,44.7974541 0.6015625,44.3923611 C0.200520396,43.9872681 0,43.4953708 0,42.9166667 L0,22.0833333 C0,21.5046292 0.200520396,21.0127319 0.6015625,20.6076389 C1.0026046,20.2025459 1.4895829,20 2.0625,20 L8.9375,20 Z M6,41 C6.55555598,41 7.02777735,40.805556 7.41666667,40.4166667 C7.80555598,40.0277774 8,39.555556 8,39 C8,38.444444 7.80555598,37.9722226 7.41666667,37.5833333 C7.02777735,37.194444 6.55555598,37 6,37 C5.44444402,37 4.97222265,37.194444 4.58333333,37.5833333 C4.19444402,37.9722226 4,38.444444 4,39 C4,39.555556 4.19444402,40.0277774 4.58333333,40.4166667 C4.97222265,40.805556 5.44444402,41 6,41 Z M33.7272727,7.11914062 C33.7272727,8.17382812 33.5511364,9.22851562 33.1988636,10.2832031 C32.9640147,10.8691411 32.5530308,11.6894531 31.9659091,12.7441406 C31.3200762,13.9746094 30.9384465,14.8828121 30.8210227,15.46875 L39.7159091,15.46875 C41.1837126,15.46875 42.4313442,15.9814449 43.4588068,17.0068359 C44.4862694,18.032227 45,19.2187504 45,20.5664062 C45,21.3867183 44.8385421,22.1777339 44.515625,22.9394531 C44.1927079,23.7011723 43.7964011,24.3457031 43.3267045,24.8730469 L43.2386364,24.8730469 C43.7083329,25.9863286 43.8844692,27.1874996 43.7670455,28.4765625 C43.6496217,29.7656254 43.2092808,30.9082036 42.4460227,31.9042969 C42.7982955,33.0175786 42.8276511,34.1894531 42.5340909,35.4199219 C42.2405308,36.6503906 41.7414773,37.6757817 41.0369318,38.4960938 C41.3892045,40.0195308 41.1837126,41.3378902 40.4204545,42.4511719 C39.6571965,43.5644536 38.2481056,44.296875 36.1931818,44.6484375 C34.9602273,44.8828129 33.0520829,45 30.46875,45 L30.2045455,45 C28.325758,45 26.388258,44.6777339 24.3920455,44.0332031 C23.2178035,43.6816406 21.6178977,43.0517574 19.5923295,42.1435547 C17.5667614,41.235352 16.0549238,40.78125 15.0568182,40.78125 C14.763258,40.78125 14.5137306,40.6787105 14.3082386,40.4736328 C14.1027467,40.2685551 14,40.0195308 14,39.7265625 L14,20.9179688 C14,20.6250004 14.1174238,20.390625 14.3522727,20.2148438 C15.5265147,18.984375 16.9649626,17.1386719 18.6676136,14.6777344 C20.0767045,12.6269536 21.2509465,11.1621094 22.1903409,10.2832031 C22.7774626,9.69726518 23.2471591,8.90624955 23.5994318,7.91015625 C23.8342808,7.3242183 24.0984853,6.3867192 24.3920455,5.09765625 L24.3920455,5.00976562 C24.7443182,3.66210982 25.0672353,2.63671875 25.3607955,1.93359375 C25.9479171,0.644530803 26.6231056,0 27.3863636,0 C28.9715909,0 30.2926136,0.380858928 31.3494318,1.14257812 C32.9346591,2.31445268 33.7272727,4.30664062 33.7272727,7.11914062 Z" id="thumbs-up" fill="#000000"></path>
    </g>
</svg>