<?xml version="1.0" encoding="UTF-8"?>
<svg width="45px" height="45px" viewBox="0 0 45 45" version="1.1" xmlns="http://www.w3.org/2000/svg" xmlns:xlink="http://www.w3.org/1999/xlink">
    <!-- Generator: Sketch 52.3 (67297) - http://www.bohemiancoding.com/sketch -->
    <title>Up-Line</title>
    <desc>Created with Sketch.</desc>
    <g id="Up-Line" stroke="none" stroke-width="1" fill="none" fill-rule="evenodd">
        <path d="M43.6816406,25.1367188 C43.9160161,26.1328121 43.9599614,27.1874996 43.8134766,28.3007812 C43.6669917,29.4140629 43.3300781,30.3808598 42.8027344,31.2011719 C42.9785156,32.2558594 42.9199214,33.3105469 42.6269531,34.3652344 C42.3339848,35.4199219 41.8652339,36.3281246 41.2207031,37.0898438 C41.2792973,39.4921871 40.6054688,41.4111333 39.1992188,42.8466797 C37.7929688,44.2822261 35.8007808,45 33.2226562,45 L29.6191406,45 C27.8613281,45 25.9277344,44.7363281 23.8183594,44.2089844 C22.5878906,43.9160161 20.8886723,43.3886723 18.7207031,42.6269531 L16.0839844,41.7480469 C15.2636723,41.5136714 14.5898438,41.3964844 14.0625,41.3964844 L14.0625,42.1875 C14.0625,42.9492192 13.7841792,43.6083989 13.2275391,44.1650391 C12.6708989,44.7216792 12.0117192,45 11.25,45 L2.8125,45 C2.0507808,45 1.39160112,44.7216792 0.834960938,44.1650391 C0.27832076,43.6083989 0,42.9492192 0,42.1875 L0,19.6875 C0,18.9257808 0.27832076,18.2666011 0.834960938,17.7099609 C1.39160112,17.1533208 2.0507808,16.875 2.8125,16.875 L11.25,16.875 C12.2460933,16.875 13.0078125,17.2851567 13.5351562,18.1054688 C13.8281246,18.0468746 14.0625,17.9882817 14.2382812,17.9296875 C14.765625,17.6367192 15.4394536,17.0214848 16.2597656,16.0839844 C16.7871094,15.4980464 17.578125,14.5312496 18.6328125,13.1835938 C19.9218754,11.4257812 20.8593746,10.2832031 21.4453125,9.75585938 C21.796875,9.40429688 22.0898433,8.8476567 22.3242188,8.0859375 C22.5,7.61718795 22.6757812,6.88476518 22.8515625,5.88867188 C23.6132817,1.96289018 24.9902339,0 26.9824219,0 C29.5019536,0 31.3476567,0.703125 32.5195312,2.109375 C33.6914058,3.515625 34.2773438,5.53710938 34.2773438,8.17382812 C34.2773438,9.28710982 34.1015625,10.4003902 33.75,11.5136719 C33.5156246,12.1582027 33.1347656,13.0078125 32.6074219,14.0625 L32.4316406,14.3261719 L38.5839844,14.3261719 C40.3417969,14.3261719 41.8505864,14.9707027 43.1103516,16.2597656 C44.3701167,17.5488286 45,19.0576167 45,20.7861328 C45,22.5146489 44.5605469,23.9648442 43.6816406,25.1367188 Z M3,42 L11,42 L11,20 L3,20 L3,42 Z M39.9,24.2410714 C40.6,24.0669643 41.125,23.6607138 41.475,23.0223214 C41.825,22.383929 42,21.6149549 42,20.7154018 C42,19.8158487 41.65,19.0033478 40.95,18.2779018 C40.25,17.5524558 39.4041662,17.1897321 38.4125,17.1897321 L28.6125,17.1897321 C28.6125,16.3772326 28.7583338,15.5937504 29.05,14.8392857 C29.225,14.3750004 29.53125,13.7075893 29.96875,12.8370536 C30.40625,11.9665179 30.7125,11.2700893 30.8875,10.7477679 C31.1791662,9.9352683 31.325,9.12276741 31.325,8.31026786 C31.325,6.68526741 31.1208338,5.52455357 30.7125,4.828125 C30.0708338,3.609375 28.7875,3 26.8625,3 C26.5125,3.34821429 26.2208338,3.87053571 25.9875,4.56696429 C25.8708338,4.97321473 25.6958338,5.64062456 25.4625,6.56919643 C25.2291662,7.84598259 25.025,8.77455313 24.85,9.35491071 C24.4416662,10.3995536 23.93125,11.2265625 23.31875,11.8359375 C22.70625,12.4453125 21.7583338,13.5915183 20.475,15.2745536 C19.075,17.0736612 18.025,18.3214286 17.325,19.0178571 C16.1,20.178571 14.9916662,20.7589286 14,20.7589286 L14,38.4308036 C14.7,38.4308036 15.575,38.5758933 16.625,38.8660714 C17.2666662,39.0401786 18.3166662,39.3883929 19.775,39.9107143 C21.7583338,40.5491067 23.275,41.0133933 24.325,41.3035714 C26.1916662,41.7678567 27.9125,42 29.4875,42 L33.075,42 C34.8833338,42 36.225,41.5357147 37.1,40.6071429 C38.0916662,39.5625 38.4125,37.9665183 38.0625,35.8191964 C38.8791662,35.412946 39.4479162,34.6439732 39.76875,33.5122768 C40.0895838,32.3805804 39.9583338,31.3504469 39.375,30.421875 C40.0166662,30.1316969 40.4541662,29.5513393 40.6875,28.6808036 C40.9208338,27.8102679 40.9645838,26.9397321 40.81875,26.0691964 C40.6729162,25.1986607 40.3666662,24.5892857 39.9,24.2410714 Z M9,38 C9,38.555556 8.80555598,39.0277774 8.41666667,39.4166667 C8.02777735,39.805556 7.55555598,40 7,40 C6.44444402,40 5.97222265,39.805556 5.58333333,39.4166667 C5.19444402,39.0277774 5,38.555556 5,38 C5,37.444444 5.19444402,36.9722226 5.58333333,36.5833333 C5.97222265,36.194444 6.44444402,36 7,36 C7.55555598,36 8.02777735,36.194444 8.41666667,36.5833333 C8.80555598,36.9722226 9,37.444444 9,38 Z" id="thumbs-up" fill="#000000"></path>
    </g>
</svg>